<?xml version="1.0" standalone="no"?>
<!DOCTYPE svg PUBLIC "-//W3C//DTD SVG 20010904//EN"
 "http://www.w3.org/TR/2001/REC-SVG-20010904/DTD/svg10.dtd">
<svg version="1.0" xmlns="http://www.w3.org/2000/svg"
 width="512.000000pt" height="512.000000pt" viewBox="0 0 512.000000 512.000000"
 preserveAspectRatio="xMidYMid meet">
<metadata>
Created by potrace 1.14, written by Peter Selinger 2001-2017
</metadata>
<g transform="translate(0.000000,512.000000) scale(0.100000,-0.100000)"
fill="#000000" stroke="none">
<path d="M2370 4915 c-372 -83 -652 -356 -742 -722 -30 -124 -30 -313 1 -438
26 -109 101 -268 165 -352 113 -149 279 -269 453 -329 132 -45 224 -58 363
-51 246 12 470 114 638 291 87 92 123 145 178 260 64 136 87 242 87 401 0 261
-86 477 -267 664 -122 126 -255 207 -423 257 -74 22 -111 27 -238 30 -106 3
-169 -1 -215 -11z m165 -758 c-7 -110 -6 -115 17 -141 21 -24 35 -29 138 -42
63 -8 121 -17 129 -20 8 -3 -21 -40 -80 -105 -52 -55 -109 -117 -127 -137
l-33 -37 6 117 7 118 -29 28 c-25 25 -40 30 -133 41 -58 8 -113 16 -122 20
-13 5 8 34 104 139 67 72 123 132 126 132 2 0 1 -51 -3 -113z"/>
<path d="M3384 3016 c-60 -27 -59 -51 16 -300 33 -110 60 -203 60 -208 0 -4
-337 -8 -750 -8 l-750 0 -30 53 -30 52 79 5 c86 6 114 21 125 66 7 28 -16 79
-39 88 -28 10 -585 7 -605 -4 -28 -15 -43 -67 -27 -98 20 -42 52 -52 174 -52
l111 0 51 -95 51 -95 -156 -248 c-86 -136 -157 -248 -158 -249 -1 -1 -40 13
-86 32 -199 79 -419 87 -620 23 -210 -67 -399 -218 -513 -409 -262 -444 -101
-1023 354 -1268 158 -86 299 -117 487 -108 319 14 599 189 758 473 l37 66 66
-6 c203 -18 555 -37 614 -33 136 9 269 102 332 232 101 205 16 449 -191 552
-64 31 -87 37 -167 42 l-92 6 -213 395 c-118 217 -216 401 -219 408 -4 10 143
12 728 10 l734 -3 61 -200 c53 -172 60 -201 47 -210 -8 -5 -48 -31 -88 -57
-188 -122 -325 -315 -387 -546 -27 -101 -30 -314 -5 -414 93 -376 382 -649
751 -709 95 -15 287 -7 376 16 101 26 256 105 342 173 428 341 465 977 79
1363 -112 111 -243 189 -398 235 -117 35 -291 43 -413 20 -46 -8 -87 -12 -91
-8 -9 9 -259 839 -259 859 0 12 40 14 271 11 l271 -3 19 -24 c25 -31 24 -75
-2 -100 -17 -16 -39 -20 -126 -23 -96 -3 -106 -5 -124 -27 -26 -32 -24 -77 6
-106 22 -23 31 -25 126 -25 121 0 166 12 218 57 59 50 84 110 79 187 -5 87
-43 148 -118 190 l-55 31 -340 2 c-272 2 -346 0 -371 -11z m-1266 -1147 c106
-195 192 -358 192 -361 0 -3 -55 -8 -122 -12 -68 -3 -155 -9 -194 -12 l-70 -6
-44 73 c-54 92 -97 147 -177 224 l-63 60 131 208 c106 168 134 206 144 195 7
-7 98 -173 203 -369z m-888 -23 c79 -17 180 -54 180 -66 0 -6 -200 -330 -214
-347 0 0 -47 -6 -104 -11 -156 -16 -232 -61 -292 -174 -30 -55 -34 -72 -35
-138 0 -109 43 -197 127 -259 64 -48 121 -59 378 -76 388 -27 461 -33 467 -38
10 -11 -86 -135 -154 -197 -81 -74 -229 -150 -340 -174 -144 -32 -335 -14
-468 45 -153 66 -294 201 -369 351 -64 130 -80 198 -80 343 0 145 16 213 80
343 97 193 280 340 491 391 94 24 241 26 333 7z m2985 -5 c154 -37 272 -107
383 -226 77 -83 137 -188 173 -305 30 -97 33 -289 6 -390 -41 -157 -158 -330
-285 -424 -127 -93 -290 -146 -450 -146 -124 0 -217 22 -337 80 -223 107 -371
309 -412 561 -14 86 -15 116 -5 194 29 227 142 418 322 541 39 26 72 46 74 43
2 -2 29 -89 60 -194 31 -104 61 -202 66 -217 7 -23 4 -33 -16 -57 -71 -84 -88
-221 -41 -324 91 -199 355 -250 507 -98 70 70 95 129 95 226 0 63 -5 90 -23
126 -34 70 -87 125 -150 156 -48 24 -69 28 -139 28 l-81 0 -61 202 c-34 111
-61 206 -61 212 0 32 258 40 375 12z m-2592 -209 c59 -62 121 -152 111 -161
-6 -6 -326 -29 -333 -25 -2 2 23 45 55 96 76 123 94 148 103 148 4 0 33 -26
64 -58z m585 -299 c-80 -156 -87 -272 -24 -408 l25 -55 -67 5 c-37 3 -90 8
-118 11 l-52 5 11 42 c13 54 13 290 0 344 l-11 42 52 5 c28 4 71 8 96 9 25 2
56 4 68 5 13 1 22 -1 20 -5z m-394 -39 c4 -9 11 -58 18 -108 11 -90 -1 -241
-21 -275 -6 -10 -53 -9 -232 4 -123 9 -225 17 -226 19 -2 2 7 25 19 52 30 67
30 170 -1 238 -11 27 -20 50 -18 52 3 3 352 30 418 33 26 1 39 -4 43 -15z"/>
</g>
</svg>
